 <svg width="116" height="108" viewBox="0 0 116 108" fill="none" xmlns="http://www.w3.org/2000/svg">
        <path d="M94.8616 55.3036C93.8749 54.7847 92.8408 54.3485 91.7712 54C92.8408 53.6515 93.8749 53.2153 94.8616 52.6964C96.8199 51.6438 98.5363 50.2423 99.9129 48.5721C101.29 46.9019 102.299 44.9956 102.885 42.962C103.47 40.9284 103.619 38.8075 103.324 36.7202C103.029 34.6329 102.295 32.6201 101.165 30.7969C100.034 28.9736 98.5287 27.3755 96.7347 26.0939C94.9408 24.8122 92.8932 23.8721 90.7091 23.3272C88.5249 22.7823 86.2468 22.6432 84.0049 22.918C81.763 23.1928 79.6011 23.876 77.6428 24.9286C76.6692 25.4666 75.7475 26.082 74.8878 26.768C75.0961 25.7313 75.2068 24.6796 75.2186 23.625C75.2186 19.3732 73.4045 15.2956 70.1753 12.2892C66.9462 9.28275 62.5665 7.59375 57.9998 7.59375C53.4331 7.59375 49.0535 9.28275 45.8243 12.2892C42.5952 15.2956 40.7811 19.3732 40.7811 23.625C40.7929 24.6796 40.9036 25.7313 41.1119 26.768C40.2522 26.082 39.3305 25.4666 38.3569 24.9286C34.4019 22.8027 29.7018 22.2267 25.2906 23.3272C20.8795 24.4277 17.1185 27.1146 14.8352 30.7969C12.5518 34.4791 11.9331 38.855 13.1151 42.962C14.2972 47.069 17.1831 50.5705 21.1381 52.6964C22.1248 53.2153 23.1589 53.6515 24.2284 54C23.1589 54.3485 22.1248 54.7847 21.1381 55.3036C18.1879 56.8885 15.8089 59.2524 14.3019 62.0963C12.7949 64.9402 12.2277 68.1363 12.672 71.2804C13.1164 74.4244 14.5522 77.3752 16.798 79.7594C19.0438 82.1436 21.9987 83.8541 25.2888 84.6745C26.752 85.0392 28.26 85.2249 29.7747 85.2272C32.7893 85.2239 35.7496 84.4803 38.3569 83.0714C39.3305 82.5334 40.2522 81.918 41.1119 81.232C40.9036 82.2687 40.7929 83.3204 40.7811 84.375C40.7811 88.6268 42.5952 92.7044 45.8243 95.7108C49.0535 98.7172 53.4331 100.406 57.9998 100.406C62.5665 100.406 66.9462 98.7172 70.1753 95.7108C73.4045 92.7044 75.2186 88.6268 75.2186 84.375C75.2068 83.3204 75.0961 82.2687 74.8878 81.232C75.7475 81.918 76.6692 82.5334 77.6428 83.0714C80.251 84.4773 83.2112 85.218 86.225 85.2188C87.7397 85.2165 89.2477 85.0307 90.7109 84.6661C94.001 83.8456 96.9559 82.1351 99.2017 79.7509C101.447 77.3667 102.883 74.416 103.328 71.2719C103.772 68.1278 103.205 64.9317 101.698 62.0878C100.191 59.2439 97.8117 56.88 94.8616 55.2952V55.3036ZM80.3616 29.3119C81.7027 28.5339 83.1982 28.015 84.7591 27.7861C86.3201 27.5572 87.9145 27.623 89.4475 27.9796C90.9806 28.3362 92.4209 28.9763 93.6828 29.8618C94.9447 30.7472 96.0024 31.86 96.7929 33.1339C97.5835 34.4077 98.0907 35.8166 98.2844 37.2767C98.4781 38.7368 98.3543 40.2183 97.9204 41.6329C97.4866 43.0476 96.7515 44.3665 95.7589 45.5112C94.7664 46.656 93.5366 47.6031 92.1428 48.2963C89.9814 49.4564 85.3822 50.8908 75.6491 51.4477L74.9966 51.4139C74.3124 47.5529 72.135 44.0582 68.8748 41.5884L69.1739 41.0358C74.5661 33.4673 78.2002 30.4763 80.3616 29.3119ZM57.9998 64.9688C55.6697 64.9688 53.3919 64.3254 51.4545 63.1202C49.5171 61.9149 48.0071 60.2018 47.1154 58.1976C46.2237 56.1933 45.9904 53.9878 46.445 51.8601C46.8995 49.7324 48.0216 47.7779 49.6692 46.2439C51.3169 44.7099 53.4161 43.6652 55.7014 43.242C57.9868 42.8188 60.3556 43.036 62.5083 43.8662C64.6611 44.6964 66.5011 46.1023 67.7956 47.9061C69.0901 49.7099 69.7811 51.8306 69.7811 54C69.7811 56.9091 68.5399 59.699 66.3304 61.7561C64.121 63.8131 61.1244 64.9688 57.9998 64.9688ZM57.9998 12.6562C61.1244 12.6562 64.121 13.8119 66.3304 15.8689C68.5399 17.926 69.7811 20.7159 69.7811 23.625C69.7811 25.9495 68.8159 30.375 64.4659 38.5045C64.3481 38.6733 64.2258 38.842 64.108 39.015C60.1683 37.6159 55.8133 37.6159 51.8736 39.015L51.5156 38.5003C47.1838 30.375 46.2186 25.9495 46.2186 23.625C46.2186 20.7159 47.4598 17.926 49.6692 15.8689C51.8787 13.8119 54.8753 12.6562 57.9998 12.6562ZM23.8569 48.3131C21.2626 46.8081 19.3982 44.4233 18.6573 41.6624C17.9165 38.9014 18.3571 35.9804 19.8863 33.5163C21.4155 31.0522 23.9134 29.2379 26.8526 28.4565C29.7917 27.6751 32.942 27.9879 35.6381 29.3287C37.7995 30.4931 41.4336 33.4842 46.8167 41.0527L47.1158 41.6053C43.8552 44.0807 41.6808 47.5818 41.0031 51.4477L40.3506 51.4814C30.6175 50.9077 26.0183 49.4733 23.8569 48.3131ZM35.6381 78.6881C32.942 80.029 29.7917 80.3417 26.8526 79.5604C23.9134 78.779 21.4155 76.9647 19.8863 74.5006C18.3571 72.0365 17.9165 69.1155 18.6573 66.3545C19.3982 63.5935 21.2626 61.2087 23.8569 59.7038C26.0183 58.5436 30.6175 57.1092 40.3506 56.5523L41.0031 56.5861C41.6873 60.4471 43.8646 63.9418 47.1248 66.4116L46.8258 66.9642C41.4336 74.5327 37.7995 77.5238 35.6381 78.6881ZM57.9998 95.3438C56.4527 95.3438 54.9207 95.06 53.4914 94.5088C52.062 93.9576 50.7632 93.1496 49.6692 92.1311C48.5753 91.1125 47.7075 89.9034 47.1154 88.5726C46.5233 87.2418 46.2186 85.8154 46.2186 84.375C46.2186 82.0505 47.1838 77.625 51.5338 69.4955C51.6516 69.3267 51.7739 69.158 51.8917 68.985C55.8314 70.3841 60.1864 70.3841 64.1261 68.985L64.4841 69.4997C68.8159 77.625 69.7811 82.0505 69.7811 84.375C69.7811 85.8154 69.4764 87.2418 68.8843 88.5726C68.2922 89.9034 67.4244 91.1125 66.3304 92.1311C65.2365 93.1496 63.9377 93.9576 62.5083 94.5088C61.079 95.06 59.547 95.3438 57.9998 95.3438ZM96.4566 74.6719C95.6831 75.9196 94.6532 77.0133 93.4258 77.8905C92.1983 78.7676 90.7972 79.411 89.3026 79.784C87.808 80.1569 86.2491 80.2521 84.715 80.0641C83.1809 79.8761 81.7016 79.4085 80.3616 78.6881C78.2002 77.5238 74.5661 74.5327 69.183 66.9642L68.8839 66.4116C72.1445 63.9362 74.3189 60.4351 74.9966 56.5692L75.6717 56.5312C85.4048 57.0881 90.0041 58.5225 92.1655 59.6827C93.5044 60.4045 94.6774 61.3648 95.6177 62.5088C96.5579 63.6527 97.247 64.9579 97.6454 66.3498C98.0439 67.7417 98.144 69.193 97.94 70.6209C97.736 72.0488 97.2319 73.4254 96.4566 74.6719Z" fill="#FF9A62"/>
        <mask id="path-2-inside-1_2004_2566" fill="white">
        <path d="M84.1236 55.1688C83.432 54.8166 82.7071 54.5204 81.9574 54.2838C82.7071 54.0472 83.432 53.751 84.1236 53.3987C85.4964 52.684 86.6996 51.7325 87.6645 50.5985C88.6295 49.4645 89.3373 48.1702 89.7476 46.7895C90.1578 45.4089 90.2625 43.9688 90.0557 42.5517C89.8488 41.1345 89.3344 39.768 88.5419 38.5301C87.7493 37.2922 86.6942 36.2072 85.4367 35.337C84.1791 34.4668 82.7439 33.8285 81.2128 33.4585C79.6817 33.0886 78.0848 32.9942 76.5133 33.1807C74.9417 33.3673 73.4264 33.8311 72.0536 34.5458C71.3712 34.9111 70.725 35.3289 70.1224 35.7947C70.2684 35.0908 70.346 34.3768 70.3543 33.6607C70.3543 30.774 69.0826 28.0055 66.8191 25.9643C64.5555 23.9231 61.4854 22.7764 58.2843 22.7764C55.0831 22.7764 52.0131 23.9231 49.7495 25.9643C47.4859 28.0055 46.2143 30.774 46.2143 33.6607C46.2225 34.3768 46.3001 35.0908 46.4461 35.7947C45.8435 35.3289 45.1974 34.9111 44.5149 34.5458C41.7426 33.1025 38.4479 32.7114 35.3558 33.4585C32.2636 34.2057 29.6273 36.03 28.0267 38.5301C26.4261 41.0301 25.9924 44.0011 26.821 46.7895C27.6496 49.578 29.6726 51.9553 32.4449 53.3987C33.1365 53.751 33.8615 54.0472 34.6112 54.2838C33.8615 54.5204 33.1365 54.8166 32.4449 55.1688C30.3769 56.2449 28.7092 57.8498 27.6529 59.7807C26.5965 61.7116 26.1989 63.8816 26.5104 66.0162C26.8218 68.1509 27.8283 70.1543 29.4026 71.773C30.9769 73.3918 33.0481 74.5531 35.3544 75.1102C36.3801 75.3577 37.4372 75.4839 38.499 75.4854C40.6122 75.4831 42.6873 74.9783 44.5149 74.0217C45.1974 73.6564 45.8435 73.2386 46.4461 72.7729C46.3001 73.4767 46.2225 74.1908 46.2143 74.9068C46.2143 77.7935 47.4859 80.562 49.7495 82.6032C52.0131 84.6444 55.0831 85.7912 58.2843 85.7912C61.4854 85.7912 64.5555 84.6444 66.8191 82.6032C69.0826 80.562 70.3543 77.7935 70.3543 74.9068C70.346 74.1908 70.2684 73.4767 70.1224 72.7729C70.725 73.2386 71.3712 73.6564 72.0536 74.0217C73.8819 74.9763 75.957 75.4792 78.0696 75.4797C79.1314 75.4781 80.1884 75.352 81.2141 75.1044C83.5204 74.5474 85.5917 73.386 87.1659 71.7673C88.7402 70.1486 89.7467 68.1451 90.0582 66.0105C90.3696 63.8758 89.972 61.7058 88.9157 59.775C87.8593 57.8441 86.1916 56.2392 84.1236 55.1631V55.1688ZM73.9594 37.5218C74.8995 36.9936 75.9478 36.6413 77.042 36.4859C78.1362 36.3305 79.2539 36.3752 80.3285 36.6173C81.4031 36.8594 82.4128 37.294 83.2973 37.8952C84.1819 38.4964 84.9233 39.2519 85.4775 40.1168C86.0316 40.9816 86.3872 41.9382 86.5229 42.9295C86.6587 43.9209 86.572 44.9267 86.2678 45.8872C85.9637 46.8476 85.4484 47.7431 84.7527 48.5203C84.0569 49.2975 83.1948 49.9406 82.2178 50.4112C80.7027 51.1989 77.4788 52.1728 70.656 52.5509L70.1986 52.5279C69.7191 49.9065 68.1928 47.5338 65.9074 45.857L66.1171 45.4817C69.8969 40.3432 72.4443 38.3124 73.9594 37.5218ZM58.2843 61.731C56.6509 61.731 55.0542 61.2942 53.6961 60.4759C52.338 59.6576 51.2795 58.4945 50.6545 57.1337C50.0294 55.7729 49.8659 54.2755 50.1845 52.8309C50.5032 51.3863 51.2897 50.0593 52.4447 49.0178C53.5996 47.9763 55.0712 47.267 56.6731 46.9797C58.2751 46.6923 59.9356 46.8398 61.4446 47.4035C62.9537 47.9671 64.2435 48.9216 65.1509 50.1463C66.0583 51.371 66.5427 52.8109 66.5427 54.2838C66.5427 56.2589 65.6726 58.1531 64.1239 59.5497C62.5751 60.9464 60.4745 61.731 58.2843 61.731ZM58.2843 26.2135C60.4745 26.2135 62.5751 26.9982 64.1239 28.3948C65.6726 29.7914 66.5427 31.6856 66.5427 33.6607C66.5427 35.239 65.8661 38.2436 62.8169 43.7632C62.7343 43.8777 62.6485 43.9923 62.5659 44.1097C59.8043 43.1598 56.7515 43.1598 53.9899 44.1097L53.739 43.7603C50.7024 38.2436 50.0258 35.239 50.0258 33.6607C50.0258 31.6856 50.8959 29.7914 52.4447 28.3948C53.9934 26.9982 56.094 26.2135 58.2843 26.2135ZM34.3507 50.4227C32.5322 49.4009 31.2253 47.7817 30.7059 45.9072C30.1866 44.0326 30.4955 42.0494 31.5674 40.3764C32.6393 38.7034 34.3903 37.4716 36.4506 36.9411C38.5109 36.4106 40.7192 36.6229 42.6091 37.5333C44.1243 38.3238 46.6717 40.3546 50.4451 45.4932L50.6548 45.8684C48.3691 47.5491 46.8449 49.9261 46.3699 52.5509L45.9125 52.5738C39.0898 52.1842 35.8658 51.2104 34.3507 50.4227ZM42.6091 71.0457C40.7192 71.9561 38.5109 72.1684 36.4506 71.6379C34.3903 71.1074 32.6393 69.8756 31.5674 68.2026C30.4955 66.5296 30.1866 64.5464 30.7059 62.6718C31.2253 60.7973 32.5322 59.1781 34.3507 58.1563C35.8658 57.3686 39.0898 56.3948 45.9125 56.0167L46.3699 56.0396C46.8495 58.661 48.3758 61.0337 50.6611 62.7106L50.4515 63.0858C46.6717 68.2244 44.1243 70.2552 42.6091 71.0457ZM58.2843 82.354C57.1998 82.354 56.1259 82.1614 55.1239 81.7871C54.122 81.4129 53.2115 80.8643 52.4447 80.1728C51.6778 79.4812 51.0695 78.6603 50.6545 77.7567C50.2395 76.8532 50.0258 75.8848 50.0258 74.9068C50.0258 73.3286 50.7024 70.3239 53.7517 64.8044C53.8343 64.6898 53.92 64.5752 54.0026 64.4578C56.7642 65.4077 59.817 65.4077 62.5787 64.4578L62.8296 64.8072C65.8661 70.3239 66.5427 73.3286 66.5427 74.9068C66.5427 75.8848 66.3291 76.8532 65.9141 77.7567C65.499 78.6603 64.8907 79.4812 64.1239 80.1728C63.357 80.8643 62.4466 81.4129 61.4446 81.7871C60.4427 82.1614 59.3688 82.354 58.2843 82.354ZM85.2417 68.3189C84.6995 69.166 83.9776 69.9086 83.1171 70.5041C82.2567 71.0997 81.2746 71.5365 80.2269 71.7897C79.1792 72.043 78.0865 72.1076 77.0111 71.9799C75.9357 71.8522 74.8987 71.5348 73.9594 71.0457C72.4443 70.2552 69.8969 68.2244 66.1234 63.0858L65.9138 62.7106C68.1994 61.0299 69.7236 58.6529 70.1986 56.0281L70.6719 56.0024C77.4946 56.3804 80.7186 57.3543 82.2337 58.142C83.1722 58.6321 83.9945 59.2841 84.6536 60.0608C85.3127 60.8375 85.7957 61.7236 86.0751 62.6686C86.3544 63.6137 86.4245 64.599 86.2816 65.5685C86.1386 66.538 85.7852 67.4726 85.2417 68.3189Z"/>
        </mask>
        <path d="M84.1236 55.1688C83.432 54.8166 82.7071 54.5204 81.9574 54.2838C82.7071 54.0472 83.432 53.751 84.1236 53.3987C85.4964 52.684 86.6996 51.7325 87.6645 50.5985C88.6295 49.4645 89.3373 48.1702 89.7476 46.7895C90.1578 45.4089 90.2625 43.9688 90.0557 42.5517C89.8488 41.1345 89.3344 39.768 88.5419 38.5301C87.7493 37.2922 86.6942 36.2072 85.4367 35.337C84.1791 34.4668 82.7439 33.8285 81.2128 33.4585C79.6817 33.0886 78.0848 32.9942 76.5133 33.1807C74.9417 33.3673 73.4264 33.8311 72.0536 34.5458C71.3712 34.9111 70.725 35.3289 70.1224 35.7947C70.2684 35.0908 70.346 34.3768 70.3543 33.6607C70.3543 30.774 69.0826 28.0055 66.8191 25.9643C64.5555 23.9231 61.4854 22.7764 58.2843 22.7764C55.0831 22.7764 52.0131 23.9231 49.7495 25.9643C47.4859 28.0055 46.2143 30.774 46.2143 33.6607C46.2225 34.3768 46.3001 35.0908 46.4461 35.7947C45.8435 35.3289 45.1974 34.9111 44.5149 34.5458C41.7426 33.1025 38.4479 32.7114 35.3558 33.4585C32.2636 34.2057 29.6273 36.03 28.0267 38.5301C26.4261 41.0301 25.9924 44.0011 26.821 46.7895C27.6496 49.578 29.6726 51.9553 32.4449 53.3987C33.1365 53.751 33.8615 54.0472 34.6112 54.2838C33.8615 54.5204 33.1365 54.8166 32.4449 55.1688C30.3769 56.2449 28.7092 57.8498 27.6529 59.7807C26.5965 61.7116 26.1989 63.8816 26.5104 66.0162C26.8218 68.1509 27.8283 70.1543 29.4026 71.773C30.9769 73.3918 33.0481 74.5531 35.3544 75.1102C36.3801 75.3577 37.4372 75.4839 38.499 75.4854C40.6122 75.4831 42.6873 74.9783 44.5149 74.0217C45.1974 73.6564 45.8435 73.2386 46.4461 72.7729C46.3001 73.4767 46.2225 74.1908 46.2143 74.9068C46.2143 77.7935 47.4859 80.562 49.7495 82.6032C52.0131 84.6444 55.0831 85.7912 58.2843 85.7912C61.4854 85.7912 64.5555 84.6444 66.8191 82.6032C69.0826 80.562 70.3543 77.7935 70.3543 74.9068C70.346 74.1908 70.2684 73.4767 70.1224 72.7729C70.725 73.2386 71.3712 73.6564 72.0536 74.0217C73.8819 74.9763 75.957 75.4792 78.0696 75.4797C79.1314 75.4781 80.1884 75.352 81.2141 75.1044C83.5204 74.5474 85.5917 73.386 87.1659 71.7673C88.7402 70.1486 89.7467 68.1451 90.0582 66.0105C90.3696 63.8758 89.972 61.7058 88.9157 59.775C87.8593 57.8441 86.1916 56.2392 84.1236 55.1631V55.1688ZM73.9594 37.5218C74.8995 36.9936 75.9478 36.6413 77.042 36.4859C78.1362 36.3305 79.2539 36.3752 80.3285 36.6173C81.4031 36.8594 82.4128 37.294 83.2973 37.8952C84.1819 38.4964 84.9233 39.2519 85.4775 40.1168C86.0316 40.9816 86.3872 41.9382 86.5229 42.9295C86.6587 43.9209 86.572 44.9267 86.2678 45.8872C85.9637 46.8476 85.4484 47.7431 84.7527 48.5203C84.0569 49.2975 83.1948 49.9406 82.2178 50.4112C80.7027 51.1989 77.4788 52.1728 70.656 52.5509L70.1986 52.5279C69.7191 49.9065 68.1928 47.5338 65.9074 45.857L66.1171 45.4817C69.8969 40.3432 72.4443 38.3124 73.9594 37.5218ZM58.2843 61.731C56.6509 61.731 55.0542 61.2942 53.6961 60.4759C52.338 59.6576 51.2795 58.4945 50.6545 57.1337C50.0294 55.7729 49.8659 54.2755 50.1845 52.8309C50.5032 51.3863 51.2897 50.0593 52.4447 49.0178C53.5996 47.9763 55.0712 47.267 56.6731 46.9797C58.2751 46.6923 59.9356 46.8398 61.4446 47.4035C62.9537 47.9671 64.2435 48.9216 65.1509 50.1463C66.0583 51.371 66.5427 52.8109 66.5427 54.2838C66.5427 56.2589 65.6726 58.1531 64.1239 59.5497C62.5751 60.9464 60.4745 61.731 58.2843 61.731ZM58.2843 26.2135C60.4745 26.2135 62.5751 26.9982 64.1239 28.3948C65.6726 29.7914 66.5427 31.6856 66.5427 33.6607C66.5427 35.239 65.8661 38.2436 62.8169 43.7632C62.7343 43.8777 62.6485 43.9923 62.5659 44.1097C59.8043 43.1598 56.7515 43.1598 53.9899 44.1097L53.739 43.7603C50.7024 38.2436 50.0258 35.239 50.0258 33.6607C50.0258 31.6856 50.8959 29.7914 52.4447 28.3948C53.9934 26.9982 56.094 26.2135 58.2843 26.2135ZM34.3507 50.4227C32.5322 49.4009 31.2253 47.7817 30.7059 45.9072C30.1866 44.0326 30.4955 42.0494 31.5674 40.3764C32.6393 38.7034 34.3903 37.4716 36.4506 36.9411C38.5109 36.4106 40.7192 36.6229 42.6091 37.5333C44.1243 38.3238 46.6717 40.3546 50.4451 45.4932L50.6548 45.8684C48.3691 47.5491 46.8449 49.9261 46.3699 52.5509L45.9125 52.5738C39.0898 52.1842 35.8658 51.2104 34.3507 50.4227ZM42.6091 71.0457C40.7192 71.9561 38.5109 72.1684 36.4506 71.6379C34.3903 71.1074 32.6393 69.8756 31.5674 68.2026C30.4955 66.5296 30.1866 64.5464 30.7059 62.6718C31.2253 60.7973 32.5322 59.1781 34.3507 58.1563C35.8658 57.3686 39.0898 56.3948 45.9125 56.0167L46.3699 56.0396C46.8495 58.661 48.3758 61.0337 50.6611 62.7106L50.4515 63.0858C46.6717 68.2244 44.1243 70.2552 42.6091 71.0457ZM58.2843 82.354C57.1998 82.354 56.1259 82.1614 55.1239 81.7871C54.122 81.4129 53.2115 80.8643 52.4447 80.1728C51.6778 79.4812 51.0695 78.6603 50.6545 77.7567C50.2395 76.8532 50.0258 75.8848 50.0258 74.9068C50.0258 73.3286 50.7024 70.3239 53.7517 64.8044C53.8343 64.6898 53.92 64.5752 54.0026 64.4578C56.7642 65.4077 59.817 65.4077 62.5787 64.4578L62.8296 64.8072C65.8661 70.3239 66.5427 73.3286 66.5427 74.9068C66.5427 75.8848 66.3291 76.8532 65.9141 77.7567C65.499 78.6603 64.8907 79.4812 64.1239 80.1728C63.357 80.8643 62.4466 81.4129 61.4446 81.7871C60.4427 82.1614 59.3688 82.354 58.2843 82.354ZM85.2417 68.3189C84.6995 69.166 83.9776 69.9086 83.1171 70.5041C82.2567 71.0997 81.2746 71.5365 80.2269 71.7897C79.1792 72.043 78.0865 72.1076 77.0111 71.9799C75.9357 71.8522 74.8987 71.5348 73.9594 71.0457C72.4443 70.2552 69.8969 68.2244 66.1234 63.0858L65.9138 62.7106C68.1994 61.0299 69.7236 58.6529 70.1986 56.0281L70.6719 56.0024C77.4946 56.3804 80.7186 57.3543 82.2337 58.142C83.1722 58.6321 83.9945 59.2841 84.6536 60.0608C85.3127 60.8375 85.7957 61.7236 86.0751 62.6686C86.3544 63.6137 86.4245 64.599 86.2816 65.5685C86.1386 66.538 85.7852 67.4726 85.2417 68.3189Z" fill="#FF9960" stroke="#E50000" stroke-width="2" mask="url(#path-2-inside-1_2004_2566)"/>
        </svg>