    <svg width="200" height="812" viewBox="0 0 375 812" fill="none" xmlns="http://www.w3.org/2000/svg">
      <path d="M522.028 822.321C615.997 953.203 374.009 986.029 268.204 951.651C162.399 917.273 104.497 803.632 138.875 697.827C173.253 592.022 280.407 571.943 379.364 595.582C478.321 619.221 428.059 691.439 522.028 822.321Z" fill="#FEFBF2"/>
      <path d="M339.568 477.554C291.769 504.793 289.259 421.447 304.71 386.745C320.16 352.042 360.817 336.436 395.519 351.886C430.221 367.337 445.828 407.993 430.377 442.696C414.927 477.398 387.367 450.315 339.568 477.554Z" fill="#FBB15C"/>
      <path d="M190.444 351.004C150.585 507.118 -30.1081 342.845 -71.783 239.696C-113.458 136.547 -63.6233 19.1435 39.5257 -22.5314C142.675 -64.2064 226.934 4.9726 272.434 95.9726C317.934 186.973 230.303 194.891 190.444 351.004Z" fill="#FFF0D9"/>
      <path d="M32.4357 -46.5469C127.874 -176.362 233.871 43.6389 233.871 154.889C233.871 266.139 143.686 356.324 32.4357 356.324C-78.8142 356.324 -169 266.139 -169 154.889C-169 43.6389 -63.0024 83.2677 32.4357 -46.5469Z" fill="#FBB15C"/>
      </svg>